# MagicaVoxel @ Ephtracy

# group
g zembie

# material
mtllib zembie.mtl
usemtl palette

# normals
vn -1 0 0
vn 1 0 0
vn 0 0 1
vn 0 0 -1
vn 0 -1 0
vn 0 1 0

# texcoords
vt 0.255859 0.5
vt 0.654297 0.5
vt 0.876953 0.5
vt 0.908203 0.5
vt 0.982422 0.5
vt 0.990234 0.5
vt 0.994141 0.5

# verts
v -20 31 -3
v -20 31 -6
v -20 34 -3
v -20 34 -6
v -18 31 -2
v -18 31 -3
v -18 32 -2
v -18 32 -3
v -17 31 -6
v -17 31 -7
v -17 32 -2
v -17 32 -3
v -17 34 -2
v -17 34 -3
v -17 34 -6
v -17 34 -7
v -12 31 -2
v -12 31 -3
v -12 34 -2
v -12 34 -3
v -9 0 2
v -9 0 1
v -9 0 -8
v -9 1 2
v -9 1 1
v -9 1 -8
v -8 1 -3
v -8 1 -7
v -8 2 -2
v -8 2 -3
v -8 2 -7
v -8 8 -6
v -8 8 -7
v -8 10 -6
v -8 10 -7
v -8 19 -2
v -8 19 -7
v -8 22 -2
v -8 22 -7
v -7 22 -2
v -7 22 -7
v -7 31 -2
v -7 31 -7
v -3 35 -3
v -3 35 -6
v -3 39 -5
v -3 39 -6
v -3 40 -3
v -3 40 -5
v -3 41 -3
v -3 41 -6
v -2 34 -3
v -2 34 -6
v -2 35 -2
v -2 35 -3
v -2 35 -6
v -2 35 -7
v -2 39 -6
v -2 39 -7
v -2 40 -2
v -2 40 -3
v -2 41 -2
v -2 41 -3
v -2 41 -6
v -2 41 -7
v 3 0 2
v 3 0 1
v 3 0 -8
v 3 1 2
v 3 1 1
v 3 1 -8
v 4 1 -3
v 4 1 -7
v 4 2 -2
v 4 2 -3
v 4 2 -7
v 4 8 -6
v 4 8 -7
v 4 10 -6
v 4 10 -7
v 4 16 -2
v 4 16 -7
v 13 31 -2
v 13 31 -3
v 13 34 -2
v 13 34 -3
v -13 31 -2
v -13 31 -3
v -13 34 -2
v -13 34 -3
v -4 1 -3
v -4 1 -7
v -4 2 -2
v -4 2 -3
v -4 2 -7
v -4 8 -6
v -4 8 -7
v -4 10 -6
v -4 10 -7
v -4 16 -2
v -4 16 -7
v -3 0 2
v -3 0 1
v -3 0 -8
v -3 1 2
v -3 1 1
v -3 1 -8
v 2 34 -3
v 2 34 -6
v 2 35 -2
v 2 35 -3
v 2 35 -6
v 2 35 -7
v 2 39 -6
v 2 39 -7
v 2 40 -2
v 2 40 -3
v 2 41 -2
v 2 41 -3
v 2 41 -6
v 2 41 -7
v 3 35 -3
v 3 35 -6
v 3 39 -5
v 3 39 -6
v 3 40 -3
v 3 40 -5
v 3 41 -3
v 3 41 -6
v 7 22 -2
v 7 22 -7
v 7 31 -2
v 7 31 -7
v 8 1 -3
v 8 1 -7
v 8 2 -2
v 8 2 -3
v 8 2 -7
v 8 8 -6
v 8 8 -7
v 8 10 -6
v 8 10 -7
v 8 19 -2
v 8 19 -7
v 8 22 -2
v 8 22 -7
v 9 0 2
v 9 0 1
v 9 0 -8
v 9 1 2
v 9 1 1
v 9 1 -8
v 12 31 -2
v 12 31 -3
v 12 34 -2
v 12 34 -3
v 17 31 -6
v 17 31 -7
v 17 32 -2
v 17 32 -3
v 17 34 -2
v 17 34 -3
v 17 34 -6
v 17 34 -7
v 18 31 -2
v 18 31 -3
v 18 32 -2
v 18 32 -3
v 20 31 -3
v 20 31 -6
v 20 34 -3
v 20 34 -6
v -9 0 2
v -9 1 2
v -3 0 2
v -3 1 2
v 3 0 2
v 3 1 2
v 9 0 2
v 9 1 2
v -18 31 -2
v -18 32 -2
v -17 32 -2
v -17 34 -2
v -13 31 -2
v -13 34 -2
v -12 31 -2
v -12 34 -2
v -8 2 -2
v -8 19 -2
v -8 22 -2
v -7 22 -2
v -7 31 -2
v -4 2 -2
v -4 16 -2
v -2 35 -2
v -2 40 -2
v -2 41 -2
v -1 38 -2
v -1 39 -2
v 1 38 -2
v 1 39 -2
v 2 35 -2
v 2 40 -2
v 2 41 -2
v 4 2 -2
v 4 16 -2
v 7 22 -2
v 7 31 -2
v 8 2 -2
v 8 19 -2
v 8 22 -2
v 12 31 -2
v 12 34 -2
v 13 31 -2
v 13 34 -2
v 17 32 -2
v 17 34 -2
v 18 31 -2
v 18 32 -2
v -20 31 -3
v -20 34 -3
v -18 31 -3
v -18 32 -3
v -17 32 -3
v -17 34 -3
v -13 31 -3
v -13 34 -3
v -12 31 -3
v -12 34 -3
v -8 1 -3
v -8 2 -3
v -4 1 -3
v -4 2 -3
v -3 35 -3
v -3 40 -3
v -3 41 -3
v -2 34 -3
v -2 35 -3
v -2 40 -3
v -2 41 -3
v 2 34 -3
v 2 35 -3
v 2 40 -3
v 2 41 -3
v 3 35 -3
v 3 40 -3
v 3 41 -3
v 4 1 -3
v 4 2 -3
v 8 1 -3
v 8 2 -3
v 12 31 -3
v 12 34 -3
v 13 31 -3
v 13 34 -3
v 17 32 -3
v 17 34 -3
v 18 31 -3
v 18 32 -3
v 20 31 -3
v 20 34 -3
v -20 31 -6
v -20 34 -6
v -17 31 -6
v -17 34 -6
v -8 8 -6
v -8 10 -6
v -4 8 -6
v -4 10 -6
v -3 35 -6
v -3 39 -6
v -3 41 -6
v -2 34 -6
v -2 35 -6
v -2 39 -6
v -2 41 -6
v 2 34 -6
v 2 35 -6
v 2 39 -6
v 2 41 -6
v 3 35 -6
v 3 39 -6
v 3 41 -6
v 4 8 -6
v 4 10 -6
v 8 8 -6
v 8 10 -6
v 17 31 -6
v 17 34 -6
v 20 31 -6
v 20 34 -6
v -17 31 -7
v -17 34 -7
v -8 1 -7
v -8 2 -7
v -8 8 -7
v -8 10 -7
v -8 19 -7
v -8 22 -7
v -7 22 -7
v -7 31 -7
v -4 1 -7
v -4 2 -7
v -4 8 -7
v -4 10 -7
v -4 16 -7
v -2 35 -7
v -2 39 -7
v -2 41 -7
v 2 35 -7
v 2 39 -7
v 2 41 -7
v 4 1 -7
v 4 2 -7
v 4 8 -7
v 4 10 -7
v 4 16 -7
v 7 22 -7
v 7 31 -7
v 8 1 -7
v 8 2 -7
v 8 8 -7
v 8 10 -7
v 8 19 -7
v 8 22 -7
v 17 31 -7
v 17 34 -7
v -9 0 -8
v -9 1 -8
v -3 0 -8
v -3 1 -8
v 3 0 -8
v 3 1 -8
v 9 0 -8
v 9 1 -8
v -9 0 2
v -3 0 2
v 3 0 2
v 9 0 2
v -9 0 1
v -3 0 1
v 3 0 1
v 9 0 1
v -9 0 -8
v -3 0 -8
v 3 0 -8
v 9 0 -8
v -8 2 -2
v -4 2 -2
v 4 2 -2
v 8 2 -2
v -8 2 -3
v -4 2 -3
v 4 2 -3
v 8 2 -3
v -8 10 -6
v -4 10 -6
v 4 10 -6
v 8 10 -6
v -8 10 -7
v -4 10 -7
v 4 10 -7
v 8 10 -7
v -4 16 -2
v 4 16 -2
v -4 16 -7
v 4 16 -7
v -18 31 -2
v -13 31 -2
v -12 31 -2
v -7 31 -2
v 7 31 -2
v 12 31 -2
v 13 31 -2
v 18 31 -2
v -20 31 -3
v -18 31 -3
v -17 31 -3
v -13 31 -3
v -12 31 -3
v 12 31 -3
v 13 31 -3
v 17 31 -3
v 18 31 -3
v 20 31 -3
v -20 31 -6
v -17 31 -6
v 17 31 -6
v 20 31 -6
v -17 31 -7
v -7 31 -7
v 7 31 -7
v 17 31 -7
v -2 35 -2
v 2 35 -2
v -3 35 -3
v -2 35 -3
v 2 35 -3
v 3 35 -3
v -3 35 -6
v -2 35 -6
v 2 35 -6
v 3 35 -6
v -2 35 -7
v 2 35 -7
v -9 1 2
v -3 1 2
v 3 1 2
v 9 1 2
v -9 1 1
v -3 1 1
v 3 1 1
v 9 1 1
v -8 1 -3
v -4 1 -3
v 4 1 -3
v 8 1 -3
v -8 1 -7
v -4 1 -7
v 4 1 -7
v 8 1 -7
v -9 1 -8
v -3 1 -8
v 3 1 -8
v 9 1 -8
v -8 8 -6
v -4 8 -6
v 4 8 -6
v 8 8 -6
v -8 8 -7
v -4 8 -7
v 4 8 -7
v 8 8 -7
v -8 22 -2
v -7 22 -2
v 7 22 -2
v 8 22 -2
v -8 22 -7
v -7 22 -7
v 7 22 -7
v 8 22 -7
v -18 32 -2
v -17 32 -2
v 17 32 -2
v 18 32 -2
v -18 32 -3
v -17 32 -3
v 17 32 -3
v 18 32 -3
v -17 34 -2
v -13 34 -2
v -12 34 -2
v 12 34 -2
v 13 34 -2
v 17 34 -2
v -20 34 -3
v -17 34 -3
v -13 34 -3
v -12 34 -3
v -2 34 -3
v 2 34 -3
v 12 34 -3
v 13 34 -3
v 17 34 -3
v 20 34 -3
v -20 34 -6
v -17 34 -6
v -2 34 -6
v 2 34 -6
v 17 34 -6
v 20 34 -6
v -17 34 -7
v 17 34 -7
v -2 41 -2
v 2 41 -2
v -3 41 -3
v -2 41 -3
v 2 41 -3
v 3 41 -3
v -3 41 -6
v -2 41 -6
v 2 41 -6
v 3 41 -6
v -2 41 -7
v 2 41 -7

# faces
f 3/4/1 2/4/1 1/4/1
f 4/4/1 2/4/1 3/4/1
f 7/3/1 6/3/1 5/3/1
f 8/3/1 6/3/1 7/3/1
f 13/3/1 12/3/1 11/3/1
f 14/3/1 12/3/1 13/3/1
f 15/3/1 10/3/1 9/3/1
f 16/3/1 10/3/1 15/3/1
f 19/3/1 18/3/1 17/3/1
f 20/3/1 18/3/1 19/3/1
f 24/5/1 22/5/1 21/5/1
f 25/6/1 23/6/1 22/6/1
f 25/5/1 22/5/1 24/5/1
f 26/6/1 23/6/1 25/6/1
f 30/6/1 28/6/1 27/6/1
f 31/6/1 28/6/1 30/6/1
f 32/1/1 30/1/1 29/1/1
f 32/1/1 31/1/1 30/1/1
f 33/1/1 31/1/1 32/1/1
f 34/1/1 32/1/1 29/1/1
f 36/1/1 34/1/1 29/1/1
f 36/1/1 35/1/1 34/1/1
f 37/1/1 35/1/1 36/1/1
f 38/3/1 37/3/1 36/3/1
f 39/3/1 37/3/1 38/3/1
f 42/3/1 41/3/1 40/3/1
f 43/3/1 41/3/1 42/3/1
f 46/2/1 45/2/1 44/2/1
f 47/2/1 45/2/1 46/2/1
f 48/2/1 46/2/1 44/2/1
f 49/7/1 47/7/1 46/7/1
f 49/2/1 46/2/1 48/2/1
f 50/7/1 49/7/1 48/7/1
f 51/7/1 47/7/1 49/7/1
f 51/7/1 49/7/1 50/7/1
f 55/2/1 53/2/1 52/2/1
f 56/2/1 53/2/1 55/2/1
f 58/2/1 57/2/1 56/2/1
f 59/2/1 57/2/1 58/2/1
f 60/2/1 55/2/1 54/2/1
f 61/2/1 55/2/1 60/2/1
f 62/7/1 61/7/1 60/7/1
f 63/7/1 61/7/1 62/7/1
f 64/7/1 59/7/1 58/7/1
f 65/7/1 59/7/1 64/7/1
f 69/5/1 67/5/1 66/5/1
f 70/6/1 68/6/1 67/6/1
f 70/5/1 67/5/1 69/5/1
f 71/6/1 68/6/1 70/6/1
f 75/6/1 73/6/1 72/6/1
f 76/6/1 73/6/1 75/6/1
f 77/1/1 75/1/1 74/1/1
f 77/1/1 76/1/1 75/1/1
f 78/1/1 76/1/1 77/1/1
f 79/1/1 77/1/1 74/1/1
f 81/1/1 79/1/1 74/1/1
f 81/1/1 80/1/1 79/1/1
f 82/1/1 80/1/1 81/1/1
f 85/3/1 84/3/1 83/3/1
f 86/3/1 84/3/1 85/3/1
f 87/3/2 88/3/2 89/3/2
f 89/3/2 88/3/2 90/3/2
f 91/6/2 92/6/2 94/6/2
f 94/6/2 92/6/2 95/6/2
f 93/1/2 94/1/2 96/1/2
f 94/1/2 95/1/2 96/1/2
f 96/1/2 95/1/2 97/1/2
f 93/1/2 96/1/2 98/1/2
f 93/1/2 98/1/2 100/1/2
f 98/1/2 99/1/2 100/1/2
f 100/1/2 99/1/2 101/1/2
f 102/5/2 103/5/2 105/5/2
f 103/6/2 104/6/2 106/6/2
f 105/5/2 103/5/2 106/5/2
f 106/6/2 104/6/2 107/6/2
f 108/2/2 109/2/2 111/2/2
f 111/2/2 109/2/2 112/2/2
f 112/2/2 113/2/2 114/2/2
f 114/2/2 113/2/2 115/2/2
f 110/2/2 111/2/2 116/2/2
f 116/2/2 111/2/2 117/2/2
f 116/7/2 117/7/2 118/7/2
f 118/7/2 117/7/2 119/7/2
f 114/7/2 115/7/2 120/7/2
f 120/7/2 115/7/2 121/7/2
f 122/2/2 123/2/2 124/2/2
f 124/2/2 123/2/2 125/2/2
f 122/2/2 124/2/2 126/2/2
f 124/7/2 125/7/2 127/7/2
f 126/2/2 124/2/2 127/2/2
f 126/7/2 127/7/2 128/7/2
f 127/7/2 125/7/2 129/7/2
f 128/7/2 127/7/2 129/7/2
f 130/3/2 131/3/2 132/3/2
f 132/3/2 131/3/2 133/3/2
f 134/6/2 135/6/2 137/6/2
f 137/6/2 135/6/2 138/6/2
f 136/1/2 137/1/2 139/1/2
f 137/1/2 138/1/2 139/1/2
f 139/1/2 138/1/2 140/1/2
f 136/1/2 139/1/2 141/1/2
f 136/1/2 141/1/2 143/1/2
f 141/1/2 142/1/2 143/1/2
f 143/1/2 142/1/2 144/1/2
f 143/3/2 144/3/2 145/3/2
f 145/3/2 144/3/2 146/3/2
f 147/5/2 148/5/2 150/5/2
f 148/6/2 149/6/2 151/6/2
f 150/5/2 148/5/2 151/5/2
f 151/6/2 149/6/2 152/6/2
f 153/3/2 154/3/2 155/3/2
f 155/3/2 154/3/2 156/3/2
f 159/3/2 160/3/2 161/3/2
f 161/3/2 160/3/2 162/3/2
f 157/3/2 158/3/2 163/3/2
f 163/3/2 158/3/2 164/3/2
f 165/3/2 166/3/2 167/3/2
f 167/3/2 166/3/2 168/3/2
f 169/4/2 170/4/2 171/4/2
f 171/4/2 170/4/2 172/4/2
f 175/5/3 174/5/3 173/5/3
f 176/5/3 174/5/3 175/5/3
f 179/5/3 178/5/3 177/5/3
f 180/5/3 178/5/3 179/5/3
f 183/3/3 182/3/3 181/3/3
f 185/3/3 183/3/3 181/3/3
f 185/3/3 184/3/3 183/3/3
f 186/3/3 184/3/3 185/3/3
f 192/3/3 191/3/3 190/3/3
f 193/3/3 188/3/3 187/3/3
f 194/1/3 190/1/3 189/1/3
f 195/1/3 190/1/3 194/1/3
f 199/2/3 197/2/3 196/2/3
f 200/2/3 197/2/3 199/2/3
f 201/2/3 199/2/3 196/2/3
f 201/5/3 200/5/3 199/5/3
f 202/2/3 197/2/3 200/2/3
f 202/5/3 200/5/3 201/5/3
f 203/2/3 201/2/3 196/2/3
f 203/2/3 202/2/3 201/2/3
f 204/7/3 198/7/3 197/7/3
f 204/2/3 202/2/3 203/2/3
f 204/2/3 197/2/3 202/2/3
f 205/7/3 198/7/3 204/7/3
f 207/1/3 190/1/3 195/1/3
f 208/3/3 192/3/3 190/3/3
f 208/3/3 193/3/3 192/3/3
f 209/3/3 188/3/3 193/3/3
f 209/3/3 193/3/3 208/3/3
f 210/1/3 207/1/3 206/1/3
f 211/1/3 190/1/3 207/1/3
f 211/1/3 207/1/3 210/1/3
f 211/3/3 208/3/3 190/3/3
f 212/3/3 208/3/3 211/3/3
f 213/3/3 188/3/3 209/3/3
f 214/3/3 188/3/3 213/3/3
f 217/3/3 216/3/3 215/3/3
f 218/3/3 216/3/3 217/3/3
f 219/3/3 217/3/3 215/3/3
f 220/3/3 217/3/3 219/3/3
f 223/4/3 222/4/3 221/4/3
f 224/4/3 222/4/3 223/4/3
f 225/4/3 222/4/3 224/4/3
f 226/4/3 222/4/3 225/4/3
f 229/3/3 228/3/3 227/3/3
f 230/3/3 228/3/3 229/3/3
f 233/6/3 232/6/3 231/6/3
f 234/6/3 232/6/3 233/6/3
f 239/2/3 236/2/3 235/2/3
f 240/7/3 237/7/3 236/7/3
f 240/2/3 236/2/3 239/2/3
f 241/7/3 237/7/3 240/7/3
f 242/2/3 239/2/3 238/2/3
f 243/2/3 239/2/3 242/2/3
f 246/2/3 244/2/3 243/2/3
f 247/7/3 245/7/3 244/7/3
f 247/2/3 244/2/3 246/2/3
f 248/7/3 245/7/3 247/7/3
f 251/6/3 250/6/3 249/6/3
f 252/6/3 250/6/3 251/6/3
f 255/3/3 254/3/3 253/3/3
f 256/3/3 254/3/3 255/3/3
f 260/4/3 258/4/3 257/4/3
f 261/4/3 260/4/3 259/4/3
f 262/4/3 258/4/3 260/4/3
f 262/4/3 260/4/3 261/4/3
f 263/4/4 264/4/4 265/4/4
f 265/4/4 264/4/4 266/4/4
f 267/1/4 268/1/4 269/1/4
f 269/1/4 268/1/4 270/1/4
f 271/2/4 272/2/4 275/2/4
f 272/7/4 273/7/4 276/7/4
f 275/2/4 272/2/4 276/2/4
f 276/7/4 273/7/4 277/7/4
f 274/2/4 275/2/4 278/2/4
f 278/2/4 275/2/4 279/2/4
f 279/2/4 280/2/4 282/2/4
f 280/7/4 281/7/4 283/7/4
f 282/2/4 280/2/4 283/2/4
f 283/7/4 281/7/4 284/7/4
f 285/1/4 286/1/4 287/1/4
f 287/1/4 286/1/4 288/1/4
f 289/4/4 290/4/4 291/4/4
f 291/4/4 290/4/4 292/4/4
f 299/3/4 300/3/4 301/3/4
f 293/3/4 294/3/4 302/3/4
f 295/6/4 296/6/4 303/6/4
f 296/1/4 297/1/4 304/1/4
f 303/6/4 296/6/4 304/6/4
f 304/1/4 297/1/4 305/1/4
f 298/1/4 299/1/4 306/1/4
f 306/1/4 299/1/4 307/1/4
f 308/2/4 309/2/4 311/2/4
f 309/7/4 310/7/4 312/7/4
f 311/2/4 309/2/4 312/2/4
f 312/7/4 310/7/4 313/7/4
f 307/1/4 299/1/4 318/1/4
f 299/3/4 301/3/4 319/3/4
f 301/3/4 302/3/4 319/3/4
f 302/3/4 294/3/4 320/3/4
f 319/3/4 302/3/4 320/3/4
f 314/6/4 315/6/4 321/6/4
f 315/1/4 316/1/4 322/1/4
f 321/6/4 315/6/4 322/6/4
f 322/1/4 316/1/4 323/1/4
f 317/1/4 318/1/4 324/1/4
f 318/1/4 299/1/4 325/1/4
f 324/1/4 318/1/4 325/1/4
f 299/3/4 319/3/4 325/3/4
f 325/3/4 319/3/4 326/3/4
f 320/3/4 294/3/4 327/3/4
f 327/3/4 294/3/4 328/3/4
f 329/6/4 330/6/4 331/6/4
f 331/6/4 330/6/4 332/6/4
f 333/6/4 334/6/4 335/6/4
f 335/6/4 334/6/4 336/6/4
f 341/5/5 338/5/5 337/5/5
f 342/5/5 338/5/5 341/5/5
f 343/5/5 340/5/5 339/5/5
f 344/5/5 340/5/5 343/5/5
f 345/6/5 342/6/5 341/6/5
f 346/6/5 342/6/5 345/6/5
f 347/6/5 344/6/5 343/6/5
f 348/6/5 344/6/5 347/6/5
f 353/1/5 350/1/5 349/1/5
f 354/1/5 350/1/5 353/1/5
f 355/1/5 352/1/5 351/1/5
f 356/1/5 352/1/5 355/1/5
f 361/1/5 358/1/5 357/1/5
f 362/1/5 358/1/5 361/1/5
f 363/1/5 360/1/5 359/1/5
f 364/1/5 360/1/5 363/1/5
f 367/1/5 366/1/5 365/1/5
f 368/1/5 366/1/5 367/1/5
f 378/3/5 370/3/5 369/3/5
f 379/3/5 370/3/5 378/3/5
f 380/3/5 370/3/5 379/3/5
f 381/3/5 372/3/5 371/3/5
f 382/3/5 374/3/5 373/3/5
f 383/3/5 376/3/5 375/3/5
f 384/3/5 376/3/5 383/3/5
f 385/3/5 376/3/5 384/3/5
f 387/4/5 378/4/5 377/4/5
f 387/4/5 379/4/5 378/4/5
f 388/3/5 380/3/5 379/3/5
f 388/4/5 379/4/5 387/4/5
f 388/3/5 381/3/5 380/3/5
f 389/3/5 384/3/5 383/3/5
f 389/4/5 386/4/5 385/4/5
f 389/4/5 385/4/5 384/4/5
f 389/3/5 383/3/5 382/3/5
f 390/4/5 386/4/5 389/4/5
f 391/3/5 381/3/5 388/3/5
f 392/3/5 372/3/5 381/3/5
f 392/3/5 381/3/5 391/3/5
f 393/3/5 382/3/5 373/3/5
f 393/3/5 389/3/5 382/3/5
f 394/3/5 389/3/5 393/3/5
f 398/2/5 396/2/5 395/2/5
f 399/2/5 396/2/5 398/2/5
f 401/2/5 398/2/5 397/2/5
f 402/2/5 398/2/5 401/2/5
f 403/2/5 400/2/5 399/2/5
f 404/2/5 400/2/5 403/2/5
f 405/2/5 403/2/5 402/2/5
f 406/2/5 403/2/5 405/2/5
f 407/5/6 408/5/6 411/5/6
f 411/5/6 408/5/6 412/5/6
f 409/5/6 410/5/6 413/5/6
f 413/5/6 410/5/6 414/5/6
f 411/6/6 412/6/6 415/6/6
f 415/6/6 412/6/6 416/6/6
f 413/6/6 414/6/6 417/6/6
f 417/6/6 414/6/6 418/6/6
f 411/6/6 415/6/6 419/6/6
f 416/6/6 412/6/6 420/6/6
f 413/6/6 417/6/6 421/6/6
f 418/6/6 414/6/6 422/6/6
f 411/6/6 419/6/6 423/6/6
f 419/6/6 420/6/6 423/6/6
f 420/6/6 412/6/6 424/6/6
f 423/6/6 420/6/6 424/6/6
f 421/6/6 422/6/6 425/6/6
f 413/6/6 421/6/6 425/6/6
f 422/6/6 414/6/6 426/6/6
f 425/6/6 422/6/6 426/6/6
f 427/1/6 428/1/6 431/1/6
f 431/1/6 428/1/6 432/1/6
f 429/1/6 430/1/6 433/1/6
f 433/1/6 430/1/6 434/1/6
f 435/3/6 436/3/6 439/3/6
f 439/3/6 436/3/6 440/3/6
f 437/3/6 438/3/6 441/3/6
f 441/3/6 438/3/6 442/3/6
f 443/3/6 444/3/6 447/3/6
f 447/3/6 444/3/6 448/3/6
f 445/3/6 446/3/6 449/3/6
f 449/3/6 446/3/6 450/3/6
f 451/3/6 452/3/6 458/3/6
f 458/3/6 452/3/6 459/3/6
f 453/3/6 454/3/6 460/3/6
f 460/3/6 454/3/6 461/3/6
f 461/3/6 454/3/6 462/3/6
f 462/3/6 454/3/6 463/3/6
f 455/3/6 456/3/6 464/3/6
f 464/3/6 456/3/6 465/3/6
f 457/4/6 458/4/6 467/4/6
f 458/3/6 459/3/6 468/3/6
f 467/4/6 458/4/6 468/4/6
f 459/3/6 460/3/6 468/3/6
f 460/3/6 461/3/6 468/3/6
f 468/3/6 461/3/6 469/3/6
f 462/3/6 463/3/6 470/3/6
f 463/3/6 464/3/6 470/3/6
f 464/3/6 465/3/6 470/3/6
f 465/4/6 466/4/6 471/4/6
f 470/3/6 465/3/6 471/3/6
f 471/4/6 466/4/6 472/4/6
f 468/3/6 469/3/6 473/3/6
f 469/3/6 470/3/6 473/3/6
f 470/3/6 471/3/6 473/3/6
f 473/3/6 471/3/6 474/3/6
f 475/7/6 476/7/6 478/7/6
f 478/7/6 476/7/6 479/7/6
f 477/7/6 478/7/6 481/7/6
f 479/7/6 480/7/6 481/7/6
f 478/7/6 479/7/6 481/7/6
f 481/7/6 480/7/6 482/7/6
f 482/7/6 480/7/6 483/7/6
f 483/7/6 480/7/6 484/7/6
f 482/7/6 483/7/6 485/7/6
f 485/7/6 483/7/6 486/7/6
